<mxfile host="app.diagrams.net" modified="2023-10-23T01:25:55.048Z" agent="Mozilla/5.0 (Macintosh; Intel Mac OS X 10_15_7) AppleWebKit/605.1.15 (KHTML, like Gecko) Version/17.0 Safari/605.1.15" etag="djndcBwpfxaqzKfNFdKP" version="22.0.6" type="google">
  <diagram id="ZlAyQdcQMooYiMIp2iUB" name="Page-1">
    <mxGraphModel grid="1" page="1" gridSize="10" guides="1" tooltips="1" connect="1" arrows="1" fold="1" pageScale="1" pageWidth="850" pageHeight="1100" math="0" shadow="0">
      <root>
        <mxCell id="0" />
        <mxCell id="1" parent="0" />
        <mxCell id="LTsl6I-yJz7CTZH3c-zI-1" value="Match order to fill" style="text;html=1;strokeColor=none;fillColor=none;align=center;verticalAlign=middle;whiteSpace=wrap;rounded=0;fontSize=20;" vertex="1" parent="1">
          <mxGeometry x="340" y="-790" width="180" height="30" as="geometry" />
        </mxCell>
        <mxCell id="nmcCEkwAIkSC5uD4xKlo-20" style="edgeStyle=orthogonalEdgeStyle;rounded=0;orthogonalLoop=1;jettySize=auto;html=1;exitX=0.5;exitY=1;exitDx=0;exitDy=0;entryX=0.5;entryY=0;entryDx=0;entryDy=0;" edge="1" parent="1" source="c8lUtPE2-WJr9LVGRomk-13" target="nmcCEkwAIkSC5uD4xKlo-2">
          <mxGeometry relative="1" as="geometry" />
        </mxCell>
        <mxCell id="c8lUtPE2-WJr9LVGRomk-13" value="Order to fill for insured&lt;br&gt;City &lt;br&gt;Peril&amp;nbsp;&lt;br&gt;Maximum Premium &lt;br&gt;Minimum Coverage &lt;br&gt;Coverage Period" style="shape=parallelogram;html=1;strokeWidth=2;perimeter=parallelogramPerimeter;whiteSpace=wrap;rounded=1;arcSize=12;size=0.23;" vertex="1" parent="1">
          <mxGeometry x="80" y="-580" width="240" height="100" as="geometry" />
        </mxCell>
        <mxCell id="c8lUtPE2-WJr9LVGRomk-292" style="edgeStyle=orthogonalEdgeStyle;rounded=0;orthogonalLoop=1;jettySize=auto;html=1;entryX=1;entryY=0.5;entryDx=0;entryDy=0;startArrow=none;startFill=0;endArrow=classic;endFill=1;" edge="1" parent="1">
          <mxGeometry relative="1" as="geometry">
            <mxPoint x="1550" y="1215" as="targetPoint" />
          </mxGeometry>
        </mxCell>
        <mxCell id="c8lUtPE2-WJr9LVGRomk-295" style="edgeStyle=orthogonalEdgeStyle;rounded=0;orthogonalLoop=1;jettySize=auto;html=1;startArrow=none;startFill=0;endArrow=classic;endFill=1;" edge="1" parent="1">
          <mxGeometry relative="1" as="geometry">
            <mxPoint x="1750" y="525" as="sourcePoint" />
          </mxGeometry>
        </mxCell>
        <mxCell id="c8lUtPE2-WJr9LVGRomk-298" style="edgeStyle=orthogonalEdgeStyle;rounded=0;orthogonalLoop=1;jettySize=auto;html=1;entryX=1;entryY=0.5;entryDx=0;entryDy=0;startArrow=none;startFill=0;endArrow=classic;endFill=1;" edge="1" parent="1">
          <mxGeometry relative="1" as="geometry">
            <mxPoint x="1750" y="860" as="sourcePoint" />
          </mxGeometry>
        </mxCell>
        <mxCell id="nmcCEkwAIkSC5uD4xKlo-19" style="edgeStyle=orthogonalEdgeStyle;rounded=0;orthogonalLoop=1;jettySize=auto;html=1;exitX=0.5;exitY=1;exitDx=0;exitDy=0;entryX=0.5;entryY=0;entryDx=0;entryDy=0;" edge="1" parent="1" source="nmcCEkwAIkSC5uD4xKlo-1" target="nmcCEkwAIkSC5uD4xKlo-3">
          <mxGeometry relative="1" as="geometry" />
        </mxCell>
        <mxCell id="nmcCEkwAIkSC5uD4xKlo-1" value="Order to fill for insurer&lt;br&gt;City &lt;br&gt;Peril&amp;nbsp;&lt;br&gt;Minimum Premium &lt;br&gt;Maximum Coverage &lt;br&gt;Coverage Period" style="shape=parallelogram;html=1;strokeWidth=2;perimeter=parallelogramPerimeter;whiteSpace=wrap;rounded=1;arcSize=12;size=0.23;" vertex="1" parent="1">
          <mxGeometry x="520" y="-580" width="240" height="100" as="geometry" />
        </mxCell>
        <mxCell id="nmcCEkwAIkSC5uD4xKlo-21" style="edgeStyle=orthogonalEdgeStyle;rounded=0;orthogonalLoop=1;jettySize=auto;html=1;exitX=0.5;exitY=1;exitDx=0;exitDy=0;entryX=0.5;entryY=0;entryDx=0;entryDy=0;" edge="1" parent="1" source="nmcCEkwAIkSC5uD4xKlo-2" target="nmcCEkwAIkSC5uD4xKlo-4">
          <mxGeometry relative="1" as="geometry" />
        </mxCell>
        <mxCell id="nmcCEkwAIkSC5uD4xKlo-2" value="Insured American odds = (Coverage Amount + Premium Amount) / Premium Amount" style="rounded=0;whiteSpace=wrap;html=1;" vertex="1" parent="1">
          <mxGeometry x="80" y="-440" width="240" height="60" as="geometry" />
        </mxCell>
        <mxCell id="nmcCEkwAIkSC5uD4xKlo-22" style="edgeStyle=orthogonalEdgeStyle;rounded=0;orthogonalLoop=1;jettySize=auto;html=1;exitX=0.5;exitY=1;exitDx=0;exitDy=0;entryX=0.5;entryY=0;entryDx=0;entryDy=0;" edge="1" parent="1" source="nmcCEkwAIkSC5uD4xKlo-3" target="nmcCEkwAIkSC5uD4xKlo-6">
          <mxGeometry relative="1" as="geometry" />
        </mxCell>
        <mxCell id="nmcCEkwAIkSC5uD4xKlo-3" value="Insurer American odds = (Coverage Amount + Premium Amount) / Coverage Amount" style="rounded=0;whiteSpace=wrap;html=1;" vertex="1" parent="1">
          <mxGeometry x="520" y="-440" width="240" height="60" as="geometry" />
        </mxCell>
        <mxCell id="nmcCEkwAIkSC5uD4xKlo-26" style="edgeStyle=orthogonalEdgeStyle;rounded=0;orthogonalLoop=1;jettySize=auto;html=1;exitX=0.5;exitY=1;exitDx=0;exitDy=0;entryX=0.5;entryY=0;entryDx=0;entryDy=0;" edge="1" parent="1" source="nmcCEkwAIkSC5uD4xKlo-4" target="nmcCEkwAIkSC5uD4xKlo-9">
          <mxGeometry relative="1" as="geometry" />
        </mxCell>
        <mxCell id="nmcCEkwAIkSC5uD4xKlo-4" value="Implied Probability = (American odds -1) / &amp;nbsp;American odds" style="rounded=0;whiteSpace=wrap;html=1;" vertex="1" parent="1">
          <mxGeometry x="80" y="-360" width="240" height="60" as="geometry" />
        </mxCell>
        <mxCell id="nmcCEkwAIkSC5uD4xKlo-15" value="" style="edgeStyle=orthogonalEdgeStyle;rounded=0;orthogonalLoop=1;jettySize=auto;html=1;" edge="1" parent="1" source="nmcCEkwAIkSC5uD4xKlo-5" target="c8lUtPE2-WJr9LVGRomk-13">
          <mxGeometry relative="1" as="geometry" />
        </mxCell>
        <mxCell id="nmcCEkwAIkSC5uD4xKlo-5" value="Insured Start" style="ellipse;whiteSpace=wrap;html=1;" vertex="1" parent="1">
          <mxGeometry x="140" y="-720" width="120" height="80" as="geometry" />
        </mxCell>
        <mxCell id="nmcCEkwAIkSC5uD4xKlo-23" style="edgeStyle=orthogonalEdgeStyle;rounded=0;orthogonalLoop=1;jettySize=auto;html=1;exitX=0.5;exitY=1;exitDx=0;exitDy=0;entryX=0.5;entryY=0;entryDx=0;entryDy=0;" edge="1" parent="1" source="nmcCEkwAIkSC5uD4xKlo-6" target="nmcCEkwAIkSC5uD4xKlo-11">
          <mxGeometry relative="1" as="geometry" />
        </mxCell>
        <mxCell id="nmcCEkwAIkSC5uD4xKlo-6" value="Implied Probability = (American odds -1) / &amp;nbsp;American odds" style="rounded=0;whiteSpace=wrap;html=1;" vertex="1" parent="1">
          <mxGeometry x="520" y="-360" width="240" height="60" as="geometry" />
        </mxCell>
        <mxCell id="nmcCEkwAIkSC5uD4xKlo-16" value="" style="edgeStyle=orthogonalEdgeStyle;rounded=0;orthogonalLoop=1;jettySize=auto;html=1;" edge="1" parent="1" source="nmcCEkwAIkSC5uD4xKlo-7" target="nmcCEkwAIkSC5uD4xKlo-1">
          <mxGeometry relative="1" as="geometry" />
        </mxCell>
        <mxCell id="nmcCEkwAIkSC5uD4xKlo-7" value="Insurer Start" style="ellipse;whiteSpace=wrap;html=1;" vertex="1" parent="1">
          <mxGeometry x="579" y="-720" width="120" height="80" as="geometry" />
        </mxCell>
        <mxCell id="nmcCEkwAIkSC5uD4xKlo-27" style="edgeStyle=orthogonalEdgeStyle;rounded=0;orthogonalLoop=1;jettySize=auto;html=1;exitX=0.5;exitY=1;exitDx=0;exitDy=0;entryX=0.5;entryY=0;entryDx=0;entryDy=0;" edge="1" parent="1" source="nmcCEkwAIkSC5uD4xKlo-9" target="nmcCEkwAIkSC5uD4xKlo-10">
          <mxGeometry relative="1" as="geometry" />
        </mxCell>
        <mxCell id="nmcCEkwAIkSC5uD4xKlo-9" value="Find insurer with policy to fill with same city and peril" style="rounded=0;whiteSpace=wrap;html=1;" vertex="1" parent="1">
          <mxGeometry x="80" y="-280" width="240" height="60" as="geometry" />
        </mxCell>
        <mxCell id="nmcCEkwAIkSC5uD4xKlo-28" style="edgeStyle=orthogonalEdgeStyle;rounded=0;orthogonalLoop=1;jettySize=auto;html=1;exitX=0.5;exitY=1;exitDx=0;exitDy=0;entryX=0.5;entryY=0;entryDx=0;entryDy=0;" edge="1" parent="1" source="nmcCEkwAIkSC5uD4xKlo-10" target="nmcCEkwAIkSC5uD4xKlo-13">
          <mxGeometry relative="1" as="geometry" />
        </mxCell>
        <mxCell id="nmcCEkwAIkSC5uD4xKlo-10" value="Matching Insurer&#39;s American odds need to be less than or equal to Insured&#39;s American Odds / (Insured&#39;s American Odds - 1)" style="rounded=0;whiteSpace=wrap;html=1;" vertex="1" parent="1">
          <mxGeometry x="80" y="-200" width="240" height="60" as="geometry" />
        </mxCell>
        <mxCell id="nmcCEkwAIkSC5uD4xKlo-24" style="edgeStyle=orthogonalEdgeStyle;rounded=0;orthogonalLoop=1;jettySize=auto;html=1;exitX=0.5;exitY=1;exitDx=0;exitDy=0;entryX=0.5;entryY=0;entryDx=0;entryDy=0;" edge="1" parent="1" source="nmcCEkwAIkSC5uD4xKlo-11" target="nmcCEkwAIkSC5uD4xKlo-12">
          <mxGeometry relative="1" as="geometry" />
        </mxCell>
        <mxCell id="nmcCEkwAIkSC5uD4xKlo-11" value="Find insured with policy to fill with same city and peril" style="rounded=0;whiteSpace=wrap;html=1;" vertex="1" parent="1">
          <mxGeometry x="520" y="-280" width="240" height="60" as="geometry" />
        </mxCell>
        <mxCell id="nmcCEkwAIkSC5uD4xKlo-25" style="edgeStyle=orthogonalEdgeStyle;rounded=0;orthogonalLoop=1;jettySize=auto;html=1;exitX=0.5;exitY=1;exitDx=0;exitDy=0;entryX=0.5;entryY=0;entryDx=0;entryDy=0;" edge="1" parent="1" source="nmcCEkwAIkSC5uD4xKlo-12" target="nmcCEkwAIkSC5uD4xKlo-14">
          <mxGeometry relative="1" as="geometry" />
        </mxCell>
        <mxCell id="nmcCEkwAIkSC5uD4xKlo-12" value="Matching Insured&#39;s American odds need to be less than or equal to Insurer&#39;s American Odds / (Insurer&#39;s American Odds - 1)" style="rounded=0;whiteSpace=wrap;html=1;" vertex="1" parent="1">
          <mxGeometry x="520" y="-200" width="240" height="60" as="geometry" />
        </mxCell>
        <mxCell id="nmcCEkwAIkSC5uD4xKlo-13" value="Matching Insurer&#39;s coverage period must be equal to or greater than the Insured&#39;s coverage period&amp;nbsp;" style="rounded=0;whiteSpace=wrap;html=1;" vertex="1" parent="1">
          <mxGeometry x="80" y="-120" width="240" height="60" as="geometry" />
        </mxCell>
        <mxCell id="nmcCEkwAIkSC5uD4xKlo-14" value="Matching Insured&#39;s coverage period must be equal to or less than the Insurer&#39;s coverage period&amp;nbsp;" style="rounded=0;whiteSpace=wrap;html=1;" vertex="1" parent="1">
          <mxGeometry x="520" y="-120" width="240" height="60" as="geometry" />
        </mxCell>
      </root>
    </mxGraphModel>
  </diagram>
</mxfile>
